<svg xmlns="http://www.w3.org/2000/svg" width="256" height="256" viewBox="0 0 512 512">
  <defs>
    <linearGradient id="springGradient" x1="0%" y1="0%" x2="100%" y2="0%">
      <stop offset="0%" style="stop-color:#1E40AF;stop-opacity:1" />
      <stop offset="50%" style="stop-color:#3B82F6;stop-opacity:1" />
      <stop offset="100%" style="stop-color:#1E40AF;stop-opacity:1" />
    </linearGradient>
  </defs>
  
  <!-- Background -->
  <rect width="512" height="512" fill="#ffffff" rx="25.6"/>
  
  <!-- Borders -->
  
    <rect x="40" y="40" 
          width="432" height="20" 
          fill="#1E40AF" rx="4"/>
  
    <rect x="40" y="452" 
          width="432" height="20" 
          fill="#1E40AF" rx="4"/>
  
  
  <!-- Spring -->
  <path d="M 256 40 C 360.2176 47.2, 444.79999999999995 56.876799999999996, 444.79999999999995 68.8 C 444.79999999999995 80.72319999999999, 360.2176 90.39999999999999, 256 90.39999999999999 C 151.7824 90.39999999999999, 67.20000000000002 80.72319999999999, 67.20000000000002 68.8 C 67.20000000000002 56.876799999999996, 151.7824 47.2, 256 47.2 L 256 97.6 C 151.7824 104.80000000000001, 67.20000000000002 114.47680000000001, 67.20000000000002 126.4 C 67.20000000000002 138.3232, 151.7824 148, 256 148 C 360.2176 148, 444.79999999999995 138.3232, 444.79999999999995 126.4 C 444.79999999999995 114.47680000000001, 360.2176 104.80000000000001, 256 104.80000000000001 L 256 155.2 C 360.2176 162.4, 444.79999999999995 172.0768, 444.79999999999995 184 C 444.79999999999995 195.9232, 360.2176 205.6, 256 205.6 C 151.7824 205.6, 67.20000000000002 195.9232, 67.20000000000002 184 C 67.20000000000002 172.0768, 151.7824 162.4, 256 162.4 L 256 212.8 C 151.7824 220.00000000000003, 67.20000000000002 229.67680000000001, 67.20000000000002 241.60000000000002 C 67.20000000000002 253.52320000000003, 151.7824 263.20000000000005, 256 263.20000000000005 C 360.2176 263.20000000000005, 444.79999999999995 253.52320000000003, 444.79999999999995 241.60000000000002 C 444.79999999999995 229.67680000000001, 360.2176 220.00000000000003, 256 220.00000000000003 L 256 270.4 C 360.2176 277.59999999999997, 444.79999999999995 287.2768, 444.79999999999995 299.2 C 444.79999999999995 311.1232, 360.2176 320.8, 256 320.8 C 151.7824 320.8, 67.20000000000002 311.1232, 67.20000000000002 299.2 C 67.20000000000002 287.2768, 151.7824 277.59999999999997, 256 277.59999999999997 L 256 328 C 151.7824 335.2, 67.20000000000002 344.8768, 67.20000000000002 356.8 C 67.20000000000002 368.7232, 151.7824 378.40000000000003, 256 378.40000000000003 C 360.2176 378.40000000000003, 444.79999999999995 368.7232, 444.79999999999995 356.8 C 444.79999999999995 344.8768, 360.2176 335.2, 256 335.2 L 256 385.6" 
        fill="none" 
        stroke="url(#springGradient)" 
        stroke-width="16" 
        stroke-linecap="round" 
        stroke-linejoin="round"/>
</svg>