<svg xmlns="http://www.w3.org/2000/svg" width="512" height="512" viewBox="0 0 512 512">
  <defs>
    <linearGradient id="springGradient" x1="0%" y1="0%" x2="100%" y2="0%">
      <stop offset="0%" style="stop-color:#1E40AF;stop-opacity:1" />
      <stop offset="50%" style="stop-color:#3B82F6;stop-opacity:1" />
      <stop offset="100%" style="stop-color:#1E40AF;stop-opacity:1" />
    </linearGradient>
  </defs>
  
  <!-- Background -->
  <rect width="512" height="512" fill="#ffffff" rx="25.6"/>
  
  <!-- Borders -->
  
    <rect x="40" y="40" 
          width="432" height="20" 
          fill="#1E40AF" rx="4"/>
  
    <rect x="40" y="452" 
          width="432" height="20" 
          fill="#1E40AF" rx="4"/>
  
  
  <!-- Spring -->
  <path d="M 256 40 C 360.2176 65.20000000000002, 444.79999999999995 74.87680000000002, 444.79999999999995 86.80000000000001 C 444.79999999999995 98.7232, 360.2176 108.4, 256 108.4 C 151.7824 108.4, 67.20000000000002 98.7232, 67.20000000000002 86.80000000000001 C 67.20000000000002 74.87680000000002, 151.7824 65.20000000000002, 256 65.20000000000002 L 256 133.60000000000002 C 151.7824 158.8, 67.20000000000002 168.4768, 67.20000000000002 180.4 C 67.20000000000002 192.3232, 151.7824 202, 256 202 C 360.2176 202, 444.79999999999995 192.3232, 444.79999999999995 180.4 C 444.79999999999995 168.4768, 360.2176 158.8, 256 158.8 L 256 227.20000000000002 C 360.2176 252.4, 444.79999999999995 262.0768, 444.79999999999995 274 C 444.79999999999995 285.9232, 360.2176 295.6, 256 295.6 C 151.7824 295.6, 67.20000000000002 285.9232, 67.20000000000002 274 C 67.20000000000002 262.0768, 151.7824 252.4, 256 252.4 L 256 320.8 C 151.7824 346, 67.20000000000002 355.6768, 67.20000000000002 367.6 C 67.20000000000002 379.52320000000003, 151.7824 389.20000000000005, 256 389.20000000000005 C 360.2176 389.20000000000005, 444.79999999999995 379.52320000000003, 444.79999999999995 367.6 C 444.79999999999995 355.6768, 360.2176 346, 256 346 L 256 414.40000000000003 C 360.2176 439.59999999999997, 444.79999999999995 449.2768, 444.79999999999995 461.2 C 444.79999999999995 473.1232, 360.2176 482.8, 256 482.8 C 151.7824 482.8, 67.20000000000002 473.1232, 67.20000000000002 461.2 C 67.20000000000002 449.2768, 151.7824 439.59999999999997, 256 439.59999999999997 L 256 508 C 151.7824 533.2, 67.20000000000002 542.8768000000001, 67.20000000000002 554.8000000000001 C 67.20000000000002 566.7232, 151.7824 576.4000000000001, 256 576.4000000000001 C 360.2176 576.4000000000001, 444.79999999999995 566.7232, 444.79999999999995 554.8000000000001 C 444.79999999999995 542.8768000000001, 360.2176 533.2, 256 533.2 L 256 601.6" 
        fill="none" 
        stroke="url(#springGradient)" 
        stroke-width="16" 
        stroke-linecap="round" 
        stroke-linejoin="round"/>
</svg>